Coordinates
version=1
nRows=10
nColumns=40
inDegrees=yes

Units are S.I. units (second, meters, Newtons, ...)
Angles are in degrees.

endheader
time	pelvis_tilt	pelvis_list	pelvis_rotation	pelvis_tx	pelvis_ty	pelvis_tz	hip_flexion_r	hip_adduction_r	hip_rotation_r	knee_angle_r	knee_angle_r_beta	ankle_angle_r	subtalar_angle_r	mtp_angle_r	hip_flexion_l	hip_adduction_l	hip_rotation_l	knee_angle_l	knee_angle_l_beta	ankle_angle_l	subtalar_angle_l	mtp_angle_l	lumbar_extension	lumbar_bending	lumbar_rotation	arm_flex_r	arm_add_r	arm_rot_r	elbow_flex_r	pro_sup_r	wrist_flex_r	wrist_dev_r	arm_flex_l	arm_add_l	arm_rot_l	elbow_flex_l	pro_sup_l	wrist_flex_l	wrist_dev_l
     32.64250000	     -3.46720094	     -5.14165509	      3.51243045	      1.14560823	      0.92595388	      0.44203653	      2.58095497	     -1.84765925	    -13.72857891	     24.71970834	     24.71970834	     15.43221916	      1.37603402	     -8.26070047	     24.71761583	     -7.05116209	     -1.20417821	     26.72479019	     26.72479019	      8.10804106	    -14.91768389	      6.76140862	    -10.70930489	      5.14359478	      3.60306212	     23.09292963	    -17.34291943	     -2.70840149	     70.10453788	     45.35896898	      0.00000000	      0.00000000	     -1.37141929	     -9.70931400	     -3.55628916	     39.45445254	     45.62531618	      0.00000000	      0.00000000
     32.65714286	     -3.50566536	     -5.04891857	      3.29984305	      1.14542340	      0.92656277	      0.43820806	      3.77462294	     -2.65564209	    -13.35085183	     27.50034909	     27.50034909	     14.80524768	      0.76841105	     -9.11393191	     24.20579194	     -6.80351079	     -1.56480344	     26.62256479	     26.62256479	      8.48072818	    -14.83885188	      6.59340025	    -10.81487204	      5.04791148	      3.90284470	     21.44365673	    -17.64656533	     -2.48374790	     68.36629009	     45.40228121	      0.00000000	      0.00000000	     -0.28628126	    -10.00064326	     -3.73354683	     40.42890557	     45.66931809	      0.00000000	      0.00000000
     32.67178571	     -3.63880547	     -5.05471625	      3.06030685	      1.14504884	      0.92696558	      0.43459521	      5.16779800	     -3.25643787	    -12.63786365	     30.17122444	     30.17122444	     12.61909645	     -1.01474323	    -13.45883275	     23.78889679	     -6.64559645	     -1.81842541	     26.46281151	     26.46281151	      8.76007166	    -14.85665786	      6.24614096	    -10.73203771	      5.00642204	      3.47305234	     21.24135951	    -17.04467457	     -2.14240113	     63.11221837	     45.56063990	      0.00000000	      0.00000000	     -0.42387698	    -10.69555054	     -3.68845850	     43.49992395	     45.72805192	      0.00000000	      0.00000000
     32.68642857	     -3.66780262	     -4.92360173	      2.83306943	      1.14444405	      0.92736023	      0.43093233	      6.86358422	     -4.15445428	    -12.08886932	     33.70154062	     33.70154062	     11.49796920	     -1.92616276	    -14.31632876	     23.27444597	     -6.36457691	     -2.19644851	     26.33745964	     26.33745964	      9.11273578	    -14.75400233	      6.05199692	    -10.88656029	      4.87506337	      3.73457551	     19.55947626	    -17.29254031	     -1.86583593	     61.47986824	     45.59707605	      0.00000000	      0.00000000	      0.73679542	    -11.01744714	     -3.89439977	     44.51610576	     45.77530321	      0.00000000	      0.00000000
     32.70107143	     -3.78383221	     -4.82672858	      2.57441002	      1.14365403	      0.92750737	      0.42748922	      8.85117917	     -4.92868393	    -11.26809568	     37.42413547	     37.42413547	      9.92763662	     -3.29274043	    -15.31529041	     22.87124027	     -6.11670803	     -2.52946548	     26.20617274	     26.20617274	      9.47313400	    -14.71619246	      5.80759061	    -10.95234941	      4.78248929	      4.08358755	     17.89511313	    -17.49044629	     -1.65858044	     59.26557540	     45.65614844	      0.00000000	      0.00000000	      1.82245576	    -11.36021777	     -4.01778342	     45.84586861	     45.81616806	      0.00000000	      0.00000000
     32.71571429	     -3.77831212	     -4.97099809	      2.34413580	      1.14273030	      0.92777775	      0.42442444	     10.69839235	     -5.13905743	    -10.05401766	     40.76650538	     40.76650538	      6.86114596	     -6.41676413	    -18.84721963	     22.42199033	     -6.16364328	     -2.79195011	     26.14796062	     26.14796062	      9.71365389	    -14.65671606	      5.12672782	    -11.06735915	      4.90669465	      3.81263687	     17.84614325	    -16.83116737	     -1.65644782	     53.28433607	     45.85251379	      0.00000000	      0.00000000	      1.79478251	    -12.24932351	     -3.31649820	     49.30932629	     45.81591172	      0.00000000	      0.00000000
     32.73035714	     -3.82684214	     -4.87147979	      2.15840591	      1.14158228	      0.92779238	      0.42127877	     12.84360482	     -5.81121630	     -9.26813684	     44.57433722	     44.57433722	      4.36023913	     -8.24640246	    -20.45673721	     21.99526851	     -5.92024156	     -3.07956484	     26.01327579	     26.01327579	      9.92398482	    -14.62506435	      4.53924883	    -11.16794297	      4.79101266	      3.13582567	     17.39712191	    -16.19598280	     -1.20091924	     49.33736934	     45.93997746	      0.00000000	      0.00000000	      1.99983474	    -13.11626367	     -3.19133978	     51.66522238	     45.90252324	      0.00000000	      0.00000000
     32.74500000	     -3.82608933	     -4.85522112	      1.96970122	      1.14031041	      0.92782917	      0.41841475	     15.03969442	     -6.22027433	     -8.31132004	     48.40654238	     48.40654238	      2.24590607	     -9.96503584	    -19.93734208	     21.60417868	     -5.79773757	     -3.35374511	     26.01887064	     26.01887064	     10.30141288	    -14.50979797	      4.24175925	    -11.36777346	      4.78618816	      3.31228734	     15.74168179	    -16.24387626	     -1.07439560	     47.34615570	     45.98970094	      0.00000000	      0.00000000	      3.18485043	    -13.52324822	     -3.24784796	     52.96129617	     45.94971978	      0.00000000	      0.00000000
     32.75964286	     -3.76047222	     -4.84298717	      1.81040002	      1.13891823	      0.92790465	      0.41575572	     17.20422442	     -6.54724558	     -7.42835990	     52.14611850	     52.14611850	      0.47224656	    -11.26142820	    -18.09993992	     21.17002895	     -5.72541335	     -3.73800529	     26.03744836	     26.03744836	     10.62219636	    -14.21295475	      3.67759620	    -11.60561988	      4.77385247	      2.87727298	     15.16518057	    -15.60611665	     -1.41881003	     43.38716265	     46.12037835	      0.00000000	      0.00000000	      3.71553269	    -14.57247528	     -2.27021962	     55.10261498	     45.95833230	      0.00000000	      0.00000000
     32.77428571	     -3.66969790	     -4.88068975	      1.65855023	      1.13745297	      0.92802559	      0.41329420	     19.26172529	     -6.69349750	     -6.57413247	     55.51107350	     55.51107350	     -1.29895276	    -12.57214532	    -16.29494719	     20.75536736	     -5.70081229	     -4.02866043	     26.12229937	     26.12229937	     10.99288997	    -14.03068495	      3.37278067	    -11.90040945	      4.85335450	      2.90984175	     13.60361757	    -15.49518016	     -1.49124465	     41.39330340	     46.17523139	      0.00000000	      0.00000000	      4.88742232	    -15.06369795	     -2.14068373	     56.40971112	     46.00337662	      0.00000000	      0.00000000
